<?xml version="1.0" encoding="iso-8859-1"?><!-- Generator: Adobe Illustrator 19.0.0, SVG Export Plug-In . SVG Version: 6.00 Build 0)  -->
<svg version="1.1" id="Layer_1" xmlns="http://www.w3.org/2000/svg" xmlns:xlink="http://www.w3.org/1999/xlink" x="0px" y="0px" viewBox="0 0 512 512"
    style="enable-background:new 0 0 512 512;" xml:space="preserve">
<g>
	<g>
		<path d="M508.056,88H4.008C1.796,88,0,89.804,0,92.016v48C0,159.868,16.156,176,36.008,176h440.048
			C495.908,176,512,159.868,512,140.016v-48C512,89.804,510.264,88,508.056,88z" />
	</g>
</g>
    <g>
	<g>
		<path d="M256,264.016c-30.88,0-56,25.12-56,56v96.576C216,421.4,236.644,424,256.016,424c19.36,0,39.984-2.6,55.984-7.4v-96.584
			C312,289.136,286.88,264.016,256,264.016z M256.008,360.016c-22.06,0-40-17.944-40-40c0-22.056,17.94-40,40-40s40,17.944,40,40
			C296.008,342.072,278.068,360.016,256.008,360.016z" />
	</g>
</g>
    <g>
	<g>
		<path d="M468.008,188H44.04c-2.212,0-4.04,1.804-4.04,4.016v16c0,93.848,60,173.868,144,203.592v-91.592c0-39.7,32.3-72,72-72
			s72,32.3,72,72v91.6c84-29.716,144-109.744,144-203.6v-16C472,189.804,470.22,188,468.008,188z" />
	</g>
</g>
    <g>
</g>
    <g>
</g>
    <g>
</g>
    <g>
</g>
    <g>
</g>
    <g>
</g>
    <g>
</g>
    <g>
</g>
    <g>
</g>
    <g>
</g>
    <g>
</g>
    <g>
</g>
    <g>
</g>
    <g>
</g>
    <g>
</g>
</svg>
