<?xml version="1.0" encoding="iso-8859-1"?><!-- Generator: Adobe Illustrator 19.0.0, SVG Export Plug-In . SVG Version: 6.00 Build 0)  -->
<svg version="1.1" id="Layer_1" xmlns="http://www.w3.org/2000/svg" xmlns:xlink="http://www.w3.org/1999/xlink" x="0px" y="0px" viewBox="0 0 512 512"
    style="enable-background:new 0 0 512 512;" xml:space="preserve">
<g transform="translate(-18 -13)">
	<polygon style="fill:#FD9808;" points="282.533,397 521.467,397 521.467,55.667 282.533,55.667 	" />
    <polygon style="fill:#FFFFFF;" points="26.533,397 265.467,397 265.467,55.667 26.533,55.667 	" />
    <polygon style="fill:#FFDD09;" points="52.133,397 495.867,397 495.867,55.667 52.133,55.667 	" />
    <g>
		<path style="fill:#54C9FD;" d="M239.867,209.267c0-14.507-11.093-25.6-25.6-25.6s-25.6,11.093-25.6,25.6s11.093,25.6,25.6,25.6
			S239.867,223.773,239.867,209.267" />
        <path style="fill:#54C9FD;" d="M128.933,311.667c0-14.507-11.093-25.6-25.6-25.6s-25.6,11.093-25.6,25.6s11.093,25.6,25.6,25.6
			S128.933,326.173,128.933,311.667" />
        <path style="fill:#54C9FD;" d="M367.867,269c0-14.507-11.093-25.6-25.6-25.6c-14.507,0-25.6,11.093-25.6,25.6
			c0,14.507,11.093,25.6,25.6,25.6C356.773,294.6,367.867,283.507,367.867,269" />
        <path style="fill:#54C9FD;" d="M470.267,166.6c0-14.507-11.093-25.6-25.6-25.6s-25.6,11.093-25.6,25.6
			c0,14.507,11.093,25.6,25.6,25.6S470.267,181.107,470.267,166.6" />
	</g>
    <path d="M521.467,405.533H26.533c-5.12,0-8.533-3.413-8.533-8.533V55.667c0-5.12,3.413-8.533,8.533-8.533h494.933
		c5.12,0,8.533,3.413,8.533,8.533V397C530,402.12,526.587,405.533,521.467,405.533z M35.067,388.467h477.867V64.2H35.067V388.467z" />
    <path d="M274,64.2c-5.12,0-8.533-3.413-8.533-8.533V21.533c0-5.12,3.413-8.533,8.533-8.533c5.12,0,8.533,3.413,8.533,8.533v34.133
		C282.533,60.787,279.12,64.2,274,64.2z" />
    <path d="M274,507.933c-5.12,0-8.533-3.413-8.533-8.533V397c0-5.12,3.413-8.533,8.533-8.533c5.12,0,8.533,3.413,8.533,8.533v102.4
		C282.533,504.52,279.12,507.933,274,507.933z" />
    <path d="M393.467,525c-2.56,0-4.267-0.853-5.973-2.56L268.027,402.973c-3.413-3.413-3.413-8.533,0-11.947
		c3.413-3.413,8.533-3.413,11.947,0L399.44,510.493c3.413,3.413,3.413,8.533,0,11.947C397.733,524.147,396.027,525,393.467,525z" />
    <path d="M154.533,525c-2.56,0-4.267-0.853-5.973-2.56c-3.413-3.413-3.413-8.533,0-11.947l119.467-119.467
		c3.413-3.413,8.533-3.413,11.947,0c3.413,3.413,3.413,8.533,0,11.947L160.507,522.44C158.8,524.147,157.093,525,154.533,525z" />
    <path d="M86.267,183.667c-5.12,0-8.533-3.413-8.533-8.533V115.4c0-5.12,3.413-8.533,8.533-8.533S94.8,110.28,94.8,115.4v59.733
		C94.8,180.253,91.387,183.667,86.267,183.667z" />
    <path d="M137.467,183.667c-5.12,0-8.533-3.413-8.533-8.533V115.4c0-5.12,3.413-8.533,8.533-8.533c5.12,0,8.533,3.413,8.533,8.533
		v59.733C146,180.253,142.587,183.667,137.467,183.667z" />
    <path d="M163.067,149.533c-2.56,0-4.267-0.853-5.973-2.56l-45.227-45.227L66.64,146.973c-3.413,3.413-8.533,3.413-11.947,0
		s-3.413-8.533,0-11.947l51.2-51.2c3.413-3.413,8.533-3.413,11.947,0l51.2,51.2c3.413,3.413,3.413,8.533,0,11.947
		C167.333,148.68,165.627,149.533,163.067,149.533z" />
    <path d="M121.253,302.28c-2.56,0-4.267-0.853-5.973-2.56c-3.413-3.413-3.413-8.533,0-11.947l71.68-69.973
		c3.413-3.413,8.533-3.413,11.947,0c3.413,3.413,3.413,8.533,0,11.947l-71.68,69.973C125.52,301.427,123.813,302.28,121.253,302.28z
		" />
    <path d="M214.267,243.4c-18.773,0-34.133-15.36-34.133-34.133s15.36-34.133,34.133-34.133s34.133,15.36,34.133,34.133
		S233.04,243.4,214.267,243.4z M214.267,192.2c-9.387,0-17.067,7.68-17.067,17.067s7.68,17.067,17.067,17.067
		s17.067-7.68,17.067-17.067S223.653,192.2,214.267,192.2z" />
    <path d="M103.333,345.8c-18.773,0-34.133-15.36-34.133-34.133s15.36-34.133,34.133-34.133s34.133,15.36,34.133,34.133
		S122.107,345.8,103.333,345.8z M103.333,294.6c-9.387,0-17.067,7.68-17.067,17.067s7.68,17.067,17.067,17.067
		s17.067-7.68,17.067-17.067S112.72,294.6,103.333,294.6z" />
    <path d="M342.267,303.133c-18.773,0-34.133-15.36-34.133-34.133s15.36-34.133,34.133-34.133S376.4,250.227,376.4,269
		S361.04,303.133,342.267,303.133z M342.267,251.933c-9.387,0-17.067,7.68-17.067,17.067c0,9.387,7.68,17.067,17.067,17.067
		s17.067-7.68,17.067-17.067C359.333,259.613,351.653,251.933,342.267,251.933z" />
    <path d="M444.667,200.733c-18.773,0-34.133-15.36-34.133-34.133s15.36-34.133,34.133-34.133S478.8,147.827,478.8,166.6
		S463.44,200.733,444.667,200.733z M444.667,149.533c-9.387,0-17.067,7.68-17.067,17.067c0,9.387,7.68,17.067,17.067,17.067
		s17.067-7.68,17.067-17.067S454.053,149.533,444.667,149.533z" />
    <path d="M317.52,269.853c-1.707,0-2.56,0-3.413-0.853l-81.067-40.107c-4.267-1.707-5.973-6.827-3.413-11.093
		c1.707-4.267,6.827-5.973,11.093-3.413l81.067,40.107c4.267,1.707,5.973,6.827,3.413,11.093
		C324.347,268.147,320.933,269.853,317.52,269.853z" />
    <path d="M360.187,259.613c-2.56,0-4.267-0.853-5.973-2.56c-3.413-3.413-3.413-8.533,0-11.947l65.707-66.56
		c3.413-3.413,8.533-3.413,11.947,0c3.413,3.413,3.413,8.533,0,11.947l-65.707,66.56
		C364.453,258.76,362.747,259.613,360.187,259.613z" />
    <path d="M487.333,337.267H453.2c-5.12,0-8.533-3.413-8.533-8.533c0-5.12,3.413-8.533,8.533-8.533h34.133
		c5.12,0,8.533,3.413,8.533,8.533C495.867,333.853,492.453,337.267,487.333,337.267z" />
    <path d="M487.333,371.4h-68.267c-5.12,0-8.533-3.413-8.533-8.533c0-5.12,3.413-8.533,8.533-8.533h68.267
		c5.12,0,8.533,3.413,8.533,8.533C495.867,367.987,492.453,371.4,487.333,371.4z" />
</g>
    <g>
</g>
    <g>
</g>
    <g>
</g>
    <g>
</g>
    <g>
</g>
    <g>
</g>
    <g>
</g>
    <g>
</g>
    <g>
</g>
    <g>
</g>
    <g>
</g>
    <g>
</g>
    <g>
</g>
    <g>
</g>
    <g>
</g>
</svg>
